<svg width="20" height="20" viewBox="0 0 20 20" fill="none" xmlns="http://www.w3.org/2000/svg">
<path d="M7.00146 15H3.60587C2.34744 15 1.71823 15 1.58585 14.9023C1.43711 14.7925 1.40077 14.7277 1.38466 14.5436C1.37033 14.3797 1.75598 13.7486 2.52727 12.4866C3.32362 11.1835 3.99982 9.28622 3.99982 6.6C3.99982 5.11479 4.63196 3.69041 5.75718 2.6402C6.88239 1.59 8.40852 1 9.99982 1C11.5911 1 13.1172 1.59 14.2425 2.6402C15.3677 3.69041 15.9998 5.11479 15.9998 6.6C15.9998 9.28622 16.676 11.1835 17.4724 12.4866C18.2437 13.7486 18.6293 14.3797 18.615 14.5436C18.5989 14.7277 18.5625 14.7925 18.4138 14.9023C18.2814 15 17.6522 15 16.3938 15H12.9998M7.00146 15L6.99982 16C6.99982 17.6569 8.34296 19 9.99982 19C11.6567 19 12.9998 17.6569 12.9998 16V15M7.00146 15H12.9998" stroke="#25282B" stroke-width="2" stroke-linecap="round" stroke-linejoin="round"/>
</svg>
