<svg width="60" height="60" viewBox="0 0 60 60" fill="none" xmlns="http://www.w3.org/2000/svg">
<g id="camera">
<g id="Icon">
<path d="M30 40C34.1421 40 37.5 36.6421 37.5 32.5C37.5 28.3579 34.1421 25 30 25C25.8579 25 22.5 28.3579 22.5 32.5C22.5 36.6421 25.8579 40 30 40Z" stroke="#131A29" stroke-width="2" stroke-linecap="round" stroke-linejoin="round"/>
<path d="M7.5 42V23C7.5 20.1997 7.5 18.7996 8.04497 17.73C8.52433 16.7892 9.28924 16.0243 10.23 15.545C11.2996 15 12.6997 15 15.5 15H18.1366C18.444 15 18.5976 15 18.7394 14.9838C19.4791 14.899 20.1426 14.489 20.5492 13.8652C20.6272 13.7457 20.6959 13.6082 20.8333 13.3333C21.1082 12.7835 21.2457 12.5086 21.4015 12.2695C22.2148 11.022 23.5417 10.2019 25.0212 10.0325C25.3048 10 25.6121 10 26.2268 10H33.7732C34.3879 10 34.6952 10 34.9788 10.0325C36.4583 10.2019 37.7852 11.022 38.5985 12.2695C38.7543 12.5086 38.8918 12.7836 39.1667 13.3333C39.3041 13.6082 39.3728 13.7457 39.4508 13.8652C39.8574 14.489 40.5209 14.899 41.2606 14.9838C41.4024 15 41.556 15 41.8634 15H44.5C47.3003 15 48.7004 15 49.77 15.545C50.7108 16.0243 51.4757 16.7892 51.955 17.73C52.5 18.7996 52.5 20.1997 52.5 23V42C52.5 44.8003 52.5 46.2004 51.955 47.27C51.4757 48.2108 50.7108 48.9757 49.77 49.455C48.7004 50 47.3003 50 44.5 50H15.5C12.6997 50 11.2996 50 10.23 49.455C9.28924 48.9757 8.52433 48.2108 8.04497 47.27C7.5 46.2004 7.5 44.8003 7.5 42Z" stroke="#131A29" stroke-width="2" stroke-linecap="round" stroke-linejoin="round"/>
</g>
</g>
</svg>
