<svg width="37" height="36" viewBox="0 0 37 36" fill="none" xmlns="http://www.w3.org/2000/svg">
<g id="car-side">
<path id="Icon" d="M12.5 25.5H24.5M12.5 25.5C12.5 27.1569 11.1569 28.5 9.5 28.5C7.84315 28.5 6.5 27.1569 6.5 25.5M12.5 25.5C12.5 23.8431 11.1569 22.5 9.5 22.5C7.84315 22.5 6.5 23.8431 6.5 25.5M24.5 25.5C24.5 27.1569 25.8431 28.5 27.5 28.5C29.1569 28.5 30.5 27.1569 30.5 25.5M24.5 25.5C24.5 23.8431 25.8431 22.5 27.5 22.5C29.1569 22.5 30.5 23.8431 30.5 25.5M15.5 7.5V16.5M6.5 16.5L6.99728 13.5163C7.35352 11.3789 7.53164 10.3102 8.06495 9.50819C8.53507 8.80125 9.19558 8.24171 9.97019 7.89421C10.8489 7.5 11.9324 7.5 14.0993 7.5H19.1467C20.5555 7.5 21.2599 7.5 21.8993 7.69418C22.4654 7.86608 22.992 8.14791 23.449 8.52354C23.9652 8.94784 24.356 9.53396 25.1374 10.7062L29 16.5M6.5 25.5H5.9C5.05992 25.5 4.63988 25.5 4.31901 25.3365C4.03677 25.1927 3.8073 24.9632 3.66349 24.681C3.5 24.3601 3.5 23.9401 3.5 23.1V21.3C3.5 19.6198 3.5 18.7798 3.82698 18.138C4.1146 17.5735 4.57354 17.1146 5.13803 16.827C5.77976 16.5 6.61984 16.5 8.3 16.5H26.3C27.4148 16.5 27.9722 16.5 28.4386 16.5739C31.006 16.9805 33.0195 18.994 33.4261 21.5614C33.5 22.0278 33.5 22.5852 33.5 23.7C33.5 23.9787 33.5 24.1181 33.4815 24.2347C33.3799 24.8765 32.8765 25.3799 32.2347 25.4815C32.1181 25.5 31.9787 25.5 31.7 25.5H30.5" stroke="white" stroke-width="2" stroke-linecap="round" stroke-linejoin="round"/>
</g>
</svg>
