<svg width="23" height="32" viewBox="0 0 23 32" fill="none" xmlns="http://www.w3.org/2000/svg">
<g id="Group">
<path id="Vector" d="M1 1H17.5C18.6935 1 19.8381 1.47411 20.682 2.31802C21.5259 3.16193 22 4.30653 22 5.5V26.5C22 26.8978 21.842 27.2794 21.5607 27.5607C21.2794 27.842 20.8978 28 20.5 28H16" stroke="white" stroke-width="2" stroke-linecap="round" stroke-linejoin="round"/>
<path id="Vector_2" d="M11.5 16V19M1 1L12.382 3.277C13.402 3.48087 14.3199 4.03181 14.9795 4.83609C15.6391 5.64037 15.9997 6.64833 16 7.6885V29.17C15.9999 29.3918 15.9505 29.6109 15.8555 29.8114C15.7606 30.0118 15.6223 30.1887 15.4507 30.3293C15.2791 30.4699 15.0785 30.5707 14.8632 30.6244C14.648 30.6782 14.4235 30.6835 14.206 30.64L3.412 28.483C2.73166 28.347 2.11949 27.9794 1.67971 27.4428C1.23993 26.9062 0.999725 26.2338 1 25.54V1Z" stroke="white" stroke-width="2" stroke-linecap="round" stroke-linejoin="round"/>
</g>
</svg>
