<svg width="165" height="80" viewBox="0 0 165 80" fill="none" xmlns="http://www.w3.org/2000/svg">
<path d="M137.75 36.4457C139.588 36.4457 141.051 37.0451 142.139 38.2439C143.245 39.424 143.798 41.0537 143.798 43.1329V52.2927H139.016V43.7791C139.016 42.7302 138.744 41.9153 138.2 41.3347C137.656 40.754 136.925 40.4636 136.006 40.4636C135.087 40.4636 134.355 40.754 133.812 41.3347C133.268 41.9153 132.996 42.7302 132.996 43.7791V52.2927H128.185V36.6143H132.996V38.6935C133.483 38.0004 134.14 37.4572 134.965 37.0638C135.79 36.6517 136.719 36.4457 137.75 36.4457Z" fill="white"/>
<path d="M122.308 34.9845C121.464 34.9845 120.77 34.741 120.226 34.254C119.701 33.7483 119.439 33.1301 119.439 32.3996C119.439 31.6503 119.701 31.0322 120.226 30.5451C120.77 30.0394 121.464 29.7865 122.308 29.7865C123.133 29.7865 123.808 30.0394 124.334 30.5451C124.877 31.0322 125.149 31.6503 125.149 32.3996C125.149 33.1301 124.877 33.7483 124.334 34.254C123.808 34.741 123.133 34.9845 122.308 34.9845ZM124.699 36.6142V52.2926H119.889V36.6142H124.699Z" fill="white"/>
<path d="M114.2 52.5174C113.356 52.5174 112.662 52.2739 112.118 51.7869C111.593 51.2811 111.33 50.663 111.33 49.9324C111.33 49.1832 111.593 48.5556 112.118 48.0499C112.662 47.5441 113.356 47.2913 114.2 47.2913C115.025 47.2913 115.7 47.5441 116.225 48.0499C116.769 48.5556 117.041 49.1832 117.041 49.9324C117.041 50.663 116.769 51.2811 116.225 51.7869C115.7 52.2739 115.025 52.5174 114.2 52.5174Z" fill="white"/>
<path d="M102.199 36.4457C104.15 36.4457 105.697 37.0357 106.841 38.2158C108.004 39.3959 108.585 41.0349 108.585 43.1329V52.2927H103.803V43.7791C103.803 42.7676 103.531 41.9903 102.987 41.447C102.462 40.8851 101.73 40.6041 100.793 40.6041C99.8548 40.6041 99.114 40.8851 98.5701 41.447C98.045 41.9903 97.7824 42.7676 97.7824 43.7791V52.2927H93.0001V43.7791C93.0001 42.7676 92.7281 41.9903 92.1843 41.447C91.6591 40.8851 90.9277 40.6041 89.99 40.6041C89.0523 40.6041 88.3115 40.8851 87.7676 41.447C87.2425 41.9903 86.9799 42.7676 86.9799 43.7791V52.2927H82.1694V36.6143H86.9799V38.5811C87.4675 37.9255 88.1052 37.4104 88.8929 37.0357C89.6806 36.6424 90.5714 36.4457 91.5654 36.4457C92.7469 36.4457 93.7971 36.6986 94.7161 37.2043C95.6538 37.7101 96.3852 38.4312 96.9104 39.3678C97.4542 38.5062 98.195 37.8037 99.1327 37.2605C100.07 36.7173 101.093 36.4457 102.199 36.4457Z" fill="white"/>
<path d="M62.1199 44.4253C62.1199 42.8144 62.4199 41.4001 63.0201 40.1826C63.639 38.965 64.4735 38.0284 65.5238 37.3728C66.574 36.7172 67.7462 36.3894 69.0402 36.3894C70.1467 36.3894 71.1126 36.6142 71.9378 37.0637C72.7817 37.5133 73.4287 38.1034 73.8789 38.8339V36.6142H78.6893V52.2926H73.8789V50.0729C73.41 50.8035 72.7536 51.3935 71.9096 51.8431C71.0845 52.2926 70.1186 52.5174 69.0121 52.5174C67.7368 52.5174 66.574 52.1896 65.5238 51.534C64.4735 50.8596 63.639 49.9137 63.0201 48.6961C62.4199 47.4598 62.1199 46.0362 62.1199 44.4253ZM73.8789 44.4534C73.8789 43.2546 73.5413 42.3086 72.8661 41.6156C72.2097 40.9225 71.4033 40.5759 70.4468 40.5759C69.4903 40.5759 68.6745 40.9225 67.9994 41.6156C67.343 42.2899 67.0148 43.2265 67.0148 44.4253C67.0148 45.6241 67.343 46.5795 67.9994 47.2913C68.6745 47.9843 69.4903 48.3309 70.4468 48.3309C71.4033 48.3309 72.2097 47.9843 72.8661 47.2913C73.5413 46.5982 73.8789 45.6522 73.8789 44.4534Z" fill="white"/>
<path d="M57.1983 34.9845C56.3544 34.9845 55.6605 34.741 55.1166 34.254C54.5915 33.7483 54.3289 33.1301 54.3289 32.3996C54.3289 31.6503 54.5915 31.0322 55.1166 30.5451C55.6605 30.0394 56.3544 29.7865 57.1983 29.7865C58.0235 29.7865 58.6987 30.0394 59.2238 30.5451C59.7677 31.0322 60.0396 31.6503 60.0396 32.3996C60.0396 33.1301 59.7677 33.7483 59.2238 34.254C58.6987 34.741 58.0235 34.9845 57.1983 34.9845ZM59.6176 54.3157C59.6176 56.245 59.13 57.6312 58.1548 58.4741C57.1796 59.3358 55.8199 59.7666 54.0757 59.7666H52.1909V55.6924H53.3443C53.8694 55.6924 54.2445 55.5894 54.4696 55.3834C54.6946 55.1773 54.8071 54.8402 54.8071 54.3719V36.6142H59.6176V54.3157Z" fill="white"/>
<path d="M45.416 36.4457C47.254 36.4457 48.7168 37.0451 49.8046 38.2439C50.9111 39.424 51.4643 41.0537 51.4643 43.1329V52.2927H46.682V43.7791C46.682 42.7302 46.41 41.9153 45.8661 41.3347C45.3223 40.754 44.5908 40.4636 43.6719 40.4636C42.7529 40.4636 42.0215 40.754 41.4776 41.3347C40.9337 41.9153 40.6618 42.7302 40.6618 43.7791V52.2927H35.8513V36.6143H40.6618V38.6935C41.1494 38.0004 41.8058 37.4572 42.631 37.0638C43.4562 36.6517 44.3846 36.4457 45.416 36.4457Z" fill="white"/>
<path d="M29.9742 34.9845C29.1302 34.9845 28.4363 34.741 27.8924 34.254C27.3673 33.7483 27.1047 33.1301 27.1047 32.3996C27.1047 31.6503 27.3673 31.0322 27.8924 30.5451C28.4363 30.0394 29.1302 29.7865 29.9742 29.7865C30.7993 29.7865 31.4745 30.0394 31.9996 30.5451C32.5435 31.0322 32.8154 31.6503 32.8154 32.3996C32.8154 33.1301 32.5435 33.7483 31.9996 34.254C31.4745 34.741 30.7993 34.9845 29.9742 34.9845ZM32.3653 36.6142V52.2926H27.5548V36.6142H32.3653Z" fill="white"/>
<path d="M25.0504 38.9183C25.0504 40.0609 24.7878 41.1099 24.2627 42.0652C23.7376 43.0018 22.9311 43.7604 21.8434 44.3411C20.7556 44.9218 19.4053 45.2121 17.7924 45.2121H14.8105V52.2927H10V32.5682H17.7924C19.3678 32.5682 20.6994 32.8398 21.7871 33.3831C22.8749 33.9263 23.6907 34.6756 24.2346 35.6309C24.7784 36.5862 25.0504 37.682 25.0504 38.9183ZM17.4267 41.3909C18.3457 41.3909 19.0302 41.1755 19.4803 40.7446C19.9304 40.3138 20.1555 39.705 20.1555 38.9183C20.1555 38.1316 19.9304 37.5228 19.4803 37.0919C19.0302 36.6611 18.3457 36.4457 17.4267 36.4457H14.8105V41.3909H17.4267Z" fill="white"/>
<path d="M29.3545 27.7073V16H154.774V64H113.749V55.8049" stroke="white" stroke-width="4"/>
</svg>
