<svg width="36" height="36" viewBox="0 0 36 36" fill="none" xmlns="http://www.w3.org/2000/svg">
<path d="M24.75 29.25C25.9926 29.25 27 28.2426 27 27C27 25.7574 25.9926 24.75 24.75 24.75C23.5074 24.75 22.5 25.7574 22.5 27C22.5 28.2426 23.5074 29.25 24.75 29.25Z" fill="white"/>
<path d="M33.4991 26.4139C32.804 24.643 31.6045 23.115 30.0493 22.0194C28.4941 20.9237 26.6515 20.3085 24.75 20.25C22.8485 20.3085 21.0059 20.9237 19.4507 22.0194C17.8955 23.115 16.696 24.643 16.0009 26.4139L15.75 27L16.0009 27.5861C16.696 29.357 17.8955 30.885 19.4507 31.9806C21.0059 33.0763 22.8485 33.6915 24.75 33.75C26.6515 33.6915 28.4941 33.0763 30.0493 31.9806C31.6045 30.885 32.804 29.357 33.4991 27.5861L33.75 27L33.4991 26.4139ZM24.75 31.5C23.86 31.5 22.99 31.2361 22.2499 30.7416C21.5099 30.2471 20.9331 29.5443 20.5925 28.7221C20.2519 27.8998 20.1628 26.995 20.3365 26.1221C20.5101 25.2492 20.9387 24.4474 21.568 23.818C22.1974 23.1887 22.9992 22.7601 23.8721 22.5865C24.745 22.4128 25.6498 22.5019 26.4721 22.8425C27.2943 23.1831 27.9971 23.7599 28.4916 24.4999C28.9861 25.24 29.25 26.11 29.25 27C29.2485 28.193 28.7739 29.3367 27.9303 30.1803C27.0867 31.0239 25.943 31.4985 24.75 31.5Z" fill="white"/>
<path d="M13.5 31.5H7.875V7.875H11.25V11.25H24.75V7.875H28.125V18H30.375V7.875C30.375 7.27826 30.1379 6.70597 29.716 6.28401C29.294 5.86205 28.7217 5.625 28.125 5.625H24.75V4.5C24.75 3.90326 24.5129 3.33097 24.091 2.90901C23.669 2.48705 23.0967 2.25 22.5 2.25H13.5C12.9033 2.25 12.331 2.48705 11.909 2.90901C11.4871 3.33097 11.25 3.90326 11.25 4.5V5.625H7.875C7.27826 5.625 6.70597 5.86205 6.28401 6.28401C5.86205 6.70597 5.625 7.27826 5.625 7.875V31.5C5.625 32.0967 5.86205 32.669 6.28401 33.091C6.70597 33.5129 7.27826 33.75 7.875 33.75H13.5V31.5ZM13.5 4.5H22.5V9H13.5V4.5Z" fill="white"/>
</svg>
