<svg width="36" height="36" viewBox="0 0 36 36" fill="none" xmlns="http://www.w3.org/2000/svg">
<path d="M28.5 13.5L19.5 4.5M28.5 13.5H24.3C22.6198 13.5 21.7798 13.5 21.138 13.173C20.5735 12.8854 20.1146 12.4265 19.827 11.862C19.5 11.2202 19.5 10.3802 19.5 8.7V4.5M28.5 13.5V15M19.5 4.5H12.3C10.6198 4.5 9.77976 4.5 9.13803 4.82698C8.57354 5.1146 8.1146 5.57354 7.82698 6.13803C7.5 6.77976 7.5 7.61984 7.5 9.3V26.7C7.5 28.3802 7.5 29.2202 7.82698 29.862C8.1146 30.4265 8.57354 30.8854 9.13803 31.173C9.77976 31.5 10.6198 31.5 12.3 31.5H15M21 31.5002L24.0374 30.8927C24.3023 30.8398 24.4347 30.8133 24.5582 30.7648C24.6678 30.7219 24.772 30.6661 24.8685 30.5988C24.9773 30.5229 25.0728 30.4274 25.2638 30.2364L31.5 24.0002C32.3284 23.1718 32.3284 21.8287 31.5 21.0002C30.6716 20.1718 29.3284 20.1718 28.5 21.0002L22.2638 27.2364C22.0728 27.4274 21.9773 27.5229 21.9015 27.6317C21.8341 27.7282 21.7784 27.8324 21.7354 27.942C21.6869 28.0655 21.6605 28.1979 21.6075 28.4628L21 31.5002Z" stroke="white" stroke-width="2" stroke-linecap="round" stroke-linejoin="round"/>
</svg>
