<svg width="476" height="470" viewBox="0 0 476 470" fill="none" xmlns="http://www.w3.org/2000/svg">
<path d="M151.8 0.950195C108 0.950195 68.47 4.53019 40.38 10.1502C26.33 12.9602 15.12 16.3402 8.17 19.6502C4.69 21.2902 2.33 22.9402 1.29 23.9602C2.33 24.9802 4.69 26.6302 8.17 28.2702C15.12 31.5602 26.33 34.9402 40.38 37.7502C68.47 43.3702 108 46.9502 151.8 46.9502C195.5 46.9502 235.1 43.3702 263.1 37.7302C277.1 34.9202 288.3 31.5402 295.3 28.2502C298.8 26.6102 301.1 24.9602 302.2 23.9402C301.1 22.9202 298.8 21.2702 295.3 19.6302C288.3 16.3402 277.1 12.9602 263.1 10.1502C235 4.53019 195.5 0.950195 151.8 0.950195ZM387 3.38019C384 3.38019 380.8 3.48019 377.8 3.64019C358.8 4.77019 338.4 9.48019 318.5 15.7802C319.8 18.1802 320.8 20.9302 320.8 23.9402C320.8 28.5202 318.6 32.5102 316 35.5502C337.6 28.2402 359.8 22.7402 378.8 21.6002C400.6 20.3002 417.5 24.5202 427.3 35.9102C443 54.0102 443.1 72.2502 434.6 95.1002C426.1 117.9 408.1 143.7 388.3 170.4C368.6 197.2 347.2 225 332.5 253.3C317.6 281.7 309.1 311.4 317.6 340.7C327.5 375.5 365.8 404.3 400.5 426.3C435.4 448.4 468 462.7 468 462.7L475.2 446.3C475.2 446.3 443.7 432.3 410.1 411.1C376.6 389.9 342 360.6 335 335.7H334.8C328.2 312.7 334.6 288 348.5 261.7C362.1 235.3 383 208.1 402.8 181.1C422.7 154.2 441.7 127.7 451.5 101.4C461.3 74.9302 460.8 47.1902 440.9 24.1402C427.8 9.00019 408.2 3.5202 386.9 3.3702L387 3.38019ZM151.8 11.9502C168.774 11.9502 185.053 12.793 197.055 14.2933C209.057 15.7936 215.8 17.8285 215.8 19.9502C215.8 22.0719 209.057 24.1068 197.055 25.607C185.053 27.1073 168.774 27.9502 151.8 27.9502C143.387 27.9518 135.054 27.7461 127.278 27.3448C119.501 26.9435 112.434 26.3545 106.481 25.6115C100.527 24.8684 95.8038 23.986 92.5813 23.0146C89.3587 22.0431 87.7 21.0018 87.7 19.9502C87.7 18.8986 89.3587 17.8573 92.5813 16.8858C95.8038 15.9144 100.527 15.0319 106.481 14.2889C112.434 13.5459 119.501 12.9569 127.278 12.5556C135.054 12.1543 143.387 11.9486 151.8 11.9502ZM32.75 54.5402V72.4902C65.89 72.6702 98.8 69.4802 128.4 64.6102C93 63.6002 61.38 60.3102 36.85 55.4002C35.45 55.1202 34.1 54.8302 32.75 54.5402ZM270.8 54.5402C269.4 54.8302 268.1 55.1202 266.6 55.4002C251.1 58.5002 232.8 60.9502 212.5 62.5902V62.6902C171.6 76.9502 103.2 90.9002 32.75 90.5002V101.8C116.1 104.3 195.4 89.7002 270.8 69.1902V54.5402ZM270.8 87.9002C195.9 107.9 116.5 122.4 32.75 119.9V133.2C114.4 134.5 194 128.6 270.8 109.7V87.9002ZM270.8 128.2C193.4 146.8 113.9 152.5 32.75 151.2V162.7C121.1 168.8 204 169.7 270.8 155.9V128.2ZM270.8 174.3C202 187.9 119.7 186.7 32.75 180.7V192.7C105.8 210.3 187.3 217.3 270.8 222.1V206.4L205.1 203.1L270.8 193.9V174.3ZM32.75 211.2V235.3C122.8 257.4 195.8 261.3 270.8 261.5V240.2C188.3 235.4 106.8 228.6 32.75 211.2ZM32.75 253.8V276.6L115.9 288.2L32.75 292.4V307.2C117 308.6 198.9 306.9 270.8 289.9V279.5C196.4 279.4 122.6 275.5 32.75 253.8ZM270.8 308.4C197.4 325.1 115.7 326.6 32.75 325.2V348.8C137.7 356.2 222.5 342.8 270.8 327.9V308.4ZM270.8 346.6C219.4 361.8 135.8 374.1 32.75 366.9V392.4C122.1 393.5 208.8 390.2 270.8 362.6V346.6ZM270.8 382.2C205.2 409 120.8 411.5 34.91 410.5C64.96 421 108.2 426.5 151.8 426.4C196.2 426.3 240.6 420.3 270.8 409.6V382.2ZM14.75 421.5C12.69 422.5 10.83 423.6 9.22 424.6C2.38 429.1 0.75 432.6 0.75 434.2C0.75 435.8 2.38 439.3 9.22 443.8C16.06 448.2 27.08 452.8 41 456.6C68.82 464.2 108.2 469.1 151.8 469.1C195.3 469.1 234.7 464.2 262.6 456.6C276.5 452.8 287.5 448.2 294.3 443.8C301.1 439.3 302.8 435.8 302.8 434.2C302.8 432.6 301.1 429.1 294.3 424.6C292.6 423.6 290.8 422.5 288.8 421.5V422.1L283.1 424.4C249.2 437.8 200.6 444.3 151.8 444.4C103 444.5 54.31 438.3 20.33 424.3L14.75 422V421.5Z" fill="white"/>
</svg>
